<?xml version="1.0" encoding="utf-8"?>
<!-- Generator: Adobe Illustrator 23.0.3, SVG Export Plug-In . SVG Version: 6.00 Build 0)  -->
<svg version="1.1" id="Layer_1" xmlns="http://www.w3.org/2000/svg" xmlns:xlink="http://www.w3.org/1999/xlink" x="0px" y="0px"
	 viewBox="0 0 521 113" style="enable-background:new 0 0 521 113;" xml:space="preserve">
<style type="text/css">
	.st0{fill:#E3DDDD;}
	.st1{fill:#FE4944;}
</style>
<g>
	<rect class="st0" width="521" height="113"/>
	<g>
		<path class="st1" d="M121.7,92.9c-5,0-8.2-5.8-8.2-11.5c0-12.2,15.6-37.4,20.7-39.5c0.4-0.1,1.4-0.2,2.6-0.2c2.5,0,6,0.5,6,2.2
			c0,0.2-0.1,0.5-0.3,0.8c-2.1,4-17.1,30.2-17.1,37.1c0,1.5,0.6,2.1,1.4,2.1c6.2,0,17.7-18.9,18.6-18.9c1.1,0,1.2,2.3,1.2,3.7
			C146.6,70.5,132.1,92.9,121.7,92.9z M146.2,35.8c-4.7,0-8.8-3.4-8.8-8.2c0-5.2,4.7-9.2,9.7-9.2c4.7,0,8.8,3.4,8.8,8.2
			C155.9,31.8,151.2,35.8,146.2,35.8z"/>
		<path class="st1" d="M170.6,92.8c-4.7,0-9.2-3.7-9.2-8.9c0-11.4,10.5-27.6,13.1-31.2l-0.4-0.2c-5.5,5.3-16.3,17.4-21.9,25.9
			c-5.5,8.4-7.5,14.3-9.6,14.3c-2,0-6.4-3-6.4-6.7c0-4.7,19.1-44.7,23.5-44.7c1.5,0,6.9,1.3,6.9,4.1c0,2.5-3.4,9.9-3.9,11.6l0.1,0.1
			C164.6,55.3,176,42,181.5,42c3.7,0,8.5,2.5,8.5,4.3c0,2.7-1.2,4.4-2.6,7.1c-1.3,2.7-12.6,23.1-12.6,27.4c0,1.2,0.3,2.1,2.3,2.1
			c5.2,0,16.1-17.9,17-17.9c0.9,0,1.3,1.7,1.3,3.4C195.4,71.3,180.4,92.8,170.6,92.8z"/>
		<path class="st1" d="M230.9,58.2c-0.5,2.5-1.1,5.5-1.9,8.8c0.9,0.3,1.7,0.4,2.3,0.4c2.1,0,2.5-1.3,2.7-1.3c0.5,0,0.6,0.1,0.6,0.5
			v0.2c0.1,5.8-3.8,9.2-7.6,9.2c-0.3,0-0.6,0-0.8,0c-4.9,12.1-14.8,17.4-23.5,17.4c-8.7,0-16.1-5.3-16.1-14.5
			c0-8.4,6.9-17.5,17.4-17.5c1.4,0,2.8,0.1,4.2,0.3c2.9-3.3,6.5-7.8,9.6-12.5c5.5-8.3,13.4-13,17.2-13c2.5,0,4.4,0.9,4.4,2.3
			C239.4,40.8,232.8,49.6,230.9,58.2z M203.8,72.1c-6.6,0-10,4.3-10,8.2c0,3.1,2.2,6,6.7,6c4.6,0,10.3-3.4,13.4-12.5
			C210.3,72.9,207,72.1,203.8,72.1z M218.9,55.1c-0.8,1.1-3.4,4.4-6,7.5c1.3,0.4,2.6,0.7,3.9,1.1c1-3.7,1.8-6.6,2.4-8.4L218.9,55.1z
			"/>
		<path class="st1" d="M268.1,46.6c-1.3,0-1,0.1-5.3,0.1c-7.4,13.8-15,27.4-15,32.1c0,3.3,2.2,4,3.6,4c6.4,0,17-17.7,17.9-17.7
			c0.9,0,1.3,1.7,1.3,3.6c0,1.9-14.9,24.1-23.6,24.1c-6.5,0-13.9-3.7-13.9-9.5c0-7,10.7-25.5,15.7-34.8l1.2-2.2
			c-2-0.2-5.1-0.8-5.1-3.3c0-1.7,0-3.4,0.2-4.1c0.1-0.5,0.3-0.7,1-0.7c0.5,0,1.9,0.1,3.1,0.1c1.4,0,4.4-0.6,5.3-0.6
			c4.4-8.2,9.3-16.8,10.5-16.8c4.6,0,7.4,4.3,7.4,6.5c0,1.2-1.5,4.2-5.1,10.9h5.4c1.9,0,2.8,0.6,2.8,1.5
			C275.5,43.4,271.1,46.6,268.1,46.6z"/>
		<path class="st1" d="M300.2,92.2c-7,0-8.6-8.3-8.9-8.3c-0.3,0-7.6,9.2-15.9,9.2c-5.5,0-10.9-4.5-10.9-13.4
			c0-14.7,17.4-37.9,33.8-37.9c8.1,0,8.8,6.9,9.1,6.9c0.5,0,5.8-6.5,7.6-6.5s1.7,0.3,2.9,0.6c1,0.2,2.5,0.4,2.5,1.8
			c0,5.5-17.6,30.3-17.6,36.5c0,1,0.5,1.7,1.5,1.7c6.4,0,16.9-17.7,17.9-17.7c0.9,0,1.3,1.7,1.3,3.6
			C323.5,70.6,308.9,92.2,300.2,92.2z M296.8,47.3c-8.1,0-19.8,20.9-19.8,30.7c0,3.2,1.1,5,3.1,5c2.6,0,9.6-4.8,9.6-6.7
			c0-0.8-2.1-1-2.9-1v-0.8c2.6-0.7,14.1-12.5,14.1-21.7C300.9,49.7,299.2,47.3,296.8,47.3z"/>
		<path class="st1" d="M373.2,92.8c-4.8,0-9.2-3.7-9.2-8.9c0-11.4,10.5-27.6,13-31.2l-0.3-0.2c-3.9,3.2-12.2,10.6-19.3,22.2
			c-5.9,9.4-9.6,18.8-11.6,18.8c-3.5,0-9.2-2.2-9.2-4.3c0-0.2,0-0.4,0.1-0.6c4.9-10.7,17.3-32.5,17.3-35.4l-0.3-0.3
			c-0.3,0-10.2,7.7-18.1,18.6c-6.7,9.4-13.3,21.5-16,21.5s-8.1-2.6-8.1-5.3c0-2.6,4.9-12.7,11.6-25.5c6.7-12.7,12.2-21.1,13.7-21.1
			c1.7,0,8.4,1.6,8.4,3.6c0,2.2-4.3,11.4-4.7,12.8c0.3,0,14.9-15.3,19.3-15.3c4.3,0,9.6,3.1,9.6,5.8c0,0.7-1.3,3.9-3.2,8.3
			c3.1-3.5,12.9-14.3,17.9-14.3c3.7,0,8.5,2.5,8.5,4.3c0,2.7-1.3,4.4-2.6,7.1c-1.4,2.7-12.7,23.1-12.7,27.4c0,1.2,0.3,2.1,2.4,2.1
			c5.1,0,16.1-17.9,16.9-17.9c1,0,1.3,1.7,1.3,3.4C397.9,71.3,383,92.8,373.2,92.8z"/>
		<path class="st1" d="M404.5,93.3c-6.8,0-12.1-6.9-12.1-15.1c0-12.7,15-35.5,28.4-35.5c3.6,0,5.5-1.1,7.6-1.1
			c3.2,0,6.2,3.7,6.2,7.6c0,7.5-11.1,20.5-27.2,20.5c-0.3,0-0.6,0-0.9-0.1c-1.3,3-2.1,5.8-2.1,8.2c0,4.4,1.6,7.2,5.3,7.2
			c13.3,0,24.3-19.8,25.5-19.8c1.1,0,1.2,1.8,1.2,3.3C436.4,72.1,421.1,93.3,404.5,93.3z M425.4,47.4c-3.5,0-11.4,8.4-16.4,17.2
			c7.9-1.7,18.2-9.8,18.2-15.5C427.2,48,426.6,47.4,425.4,47.4z"/>
		<path class="st1" d="M468.7,81.1c0,1,0.5,1.7,1.5,1.7c6.4,0,16.9-17.7,17.8-17.7c1,0,1.4,1.7,1.4,3.6c0,1.9-14.6,23.5-23.4,23.5
			c-6.4,0-9.9-4.7-10.8-8.3c-1.4,2.2-7.3,9.2-13.7,9.2c-5.5,0-10.9-4.5-10.9-13.4c0-14.7,17.4-37.9,33.8-37.9c5.7,0,6.9,6,7,6.9
			c2.7-4.8,15.2-31.4,17.2-31.4c4,0,6.7,4.6,6.7,7.9C495.3,29.1,468.7,72.9,468.7,81.1z M462.4,47.8c-8.5,0-19.3,21.1-19.3,30.7
			c0,2.8,1,4.5,3.1,4.5c5.7,0,20.2-25.8,20.2-28.3C466.4,49.6,464.4,47.8,462.4,47.8z"/>
	</g>
	<g>
		<rect x="41.9" y="24.9" class="st1" width="20.9" height="63.2"/>
		
			<rect x="41.9" y="24.9" transform="matrix(-1.836970e-16 1 -1 -1.836970e-16 108.875 4.125)" class="st1" width="20.9" height="63.2"/>
	</g>
</g>
</svg>
